<?xml version="1.0" standalone="no"?>
<!DOCTYPE svg PUBLIC "-//W3C//DTD SVG 20010904//EN"
 "http://www.w3.org/TR/2001/REC-SVG-20010904/DTD/svg10.dtd">
<svg version="1.0" xmlns="http://www.w3.org/2000/svg"
 width="1280.000000pt" height="763.000000pt" viewBox="0 0 1280.000000 763.000000"
 preserveAspectRatio="xMidYMid meet">
<metadata>
Created by potrace 1.15, written by Peter Selinger 2001-2017
</metadata>
<g transform="translate(0.000000,763.000000) scale(0.100000,-0.100000)"
fill="#000000" stroke="none">
<path d="M561 7626 c12 -10 670 -422 769 -481 63 -37 176 -100 250 -138 185
-97 497 -274 931 -530 406 -239 935 -546 1076 -625 153 -86 456 -247 488 -260
140 -57 463 -55 581 3 170 83 247 246 195 411 -58 179 -186 330 -351 414 -152
77 -575 241 -945 366 -456 155 -812 260 -1745 514 -430 117 -773 212 -925 256
-131 38 -338 83 -324 70z"/>
<path d="M6295 7524 c-11 -2 -45 -9 -75 -15 -166 -32 -334 -125 -464 -256
-355 -354 -374 -881 -46 -1270 63 -75 190 -177 271 -219 27 -13 89 -38 138
-54 436 -146 918 53 1124 466 97 193 132 410 93 574 -93 393 -319 638 -686
746 -65 19 -115 26 -210 29 -69 2 -134 2 -145 -1z"/>
<path d="M6729 5237 c-106 -30 -173 -90 -210 -188 -75 -197 9 -449 208 -629
93 -83 616 -422 998 -645 247 -145 1280 -687 1505 -791 133 -61 149 -70 110
-61 -125 27 -234 47 -238 42 -6 -5 -44 -217 -40 -221 2 -1 206 -36 453 -78
1281 -215 1168 -193 1190 -224 241 -328 595 -601 995 -765 263 -108 564 -116
743 -20 234 127 401 537 344 849 -47 258 -199 441 -431 519 -184 62 -336 70
-566 31 -413 -71 -748 -171 -1007 -302 -96 -48 -105 -51 -150 -44 -26 5 -111
18 -188 30 -214 33 -412 68 -604 105 -205 41 -191 32 -411 255 -80 81 -219
212 -310 291 -271 236 -507 453 -1035 954 -360 341 -528 494 -759 690 -204
174 -270 205 -441 211 -71 3 -126 -1 -156 -9z"/>
<path d="M6390 3845 c-469 -59 -1007 -241 -1406 -476 -230 -135 -315 -207
-387 -326 -63 -104 -107 -269 -107 -403 0 -127 64 -249 170 -323 90 -63 132
-70 369 -64 298 7 431 39 701 167 119 57 664 308 708 327 15 6 17 -238 2 -397
-9 -106 -21 -363 -40 -890 -13 -354 -27 -650 -46 -980 -8 -140 -17 -307 -21
-370 l-6 -114 53 49 c115 109 215 256 329 483 271 541 482 1228 571 1857 6 44
15 109 20 145 29 206 35 296 35 560 0 239 -3 296 -18 355 -41 160 -106 251
-223 312 -182 95 -417 124 -704 88z"/>
<path d="M3841 3195 c-87 -25 -169 -74 -245 -150 -150 -149 -252 -340 -511
-960 -114 -272 -203 -465 -271 -588 -165 -294 -228 -353 -599 -550 -383 -205
-726 -348 -1465 -612 -525 -188 -733 -264 -740 -272 -3 -3 193 -3 435 0 489 7
746 21 1595 87 69 5 166 12 215 16 289 19 634 138 877 301 197 132 472 431
686 746 239 351 454 781 522 1044 65 251 67 499 5 672 -62 177 -325 315 -504
266z"/>
<path d="M10813 2015 c-93 -26 -170 -88 -215 -175 -19 -38 -23 -60 -23 -140 0
-110 19 -160 89 -231 51 -51 94 -74 173 -90 225 -46 434 181 369 403 -50 175
-228 280 -393 233z m130 -277 c9 -11 17 -29 17 -40 0 -25 -44 -68 -70 -68 -29
0 -60 35 -60 68 1 66 69 91 113 40z"/>
</g>
</svg>
